<svg xmlns="http://www.w3.org/2000/svg" width="14" height="14" viewBox="0 0 64 64"><g data-name="Shopping List"><path style="fill:#232328" d="M42 63.414 49.414 56H42v7.414zM43 23h2a4 4 0 0 1 8 0h2a6 6 0 0 0-12 0zM57 25H41a3.003 3.003 0 0 0-3 3v13a6.007 6.007 0 0 0 6 6h10a6.007 6.007 0 0 0 6-6V28a3.003 3.003 0 0 0-3-3zm-13 6a1 1 0 1 1 1-1 1 1 0 0 1-1 1zm10 0a1 1 0 1 1 1-1 1 1 0 0 1-1 1z"/><path d="M36 41V28a5.002 5.002 0 0 1 5-5 8.01 8.01 0 0 1 8-8 8.262 8.262 0 0 1 1 .06V1a1.003 1.003 0 0 0-1-1H5a1.003 1.003 0 0 0-1 1v62a1.003 1.003 0 0 0 1 1h35v-9a1.003 1.003 0 0 1 1-1h9v-5h-6a8.01 8.01 0 0 1-8-8zM24 8h14a1 1 0 0 1 0 2H24a1 1 0 0 1 0-2zm0 4h6a1 1 0 0 1 0 2h-6a1 1 0 0 1 0-2zm0 10h10a1 1 0 0 1 0 2H24a1 1 0 0 1 0-2zm0 4h6a1 1 0 0 1 0 2h-6a1 1 0 0 1 0-2zm0 10h9a1 1 0 0 1 0 2h-9a1 1 0 0 1 0-2zm0 4h6a1 1 0 0 1 0 2h-6a1 1 0 0 1 0-2zM9 7a1 1 0 0 1 1-1h6a1 1 0 0 1 0 2h-5v6h6v-1a1 1 0 0 1 2 0v2a1 1 0 0 1-1 1h-8a1 1 0 0 1-1-1zm0 14a1 1 0 0 1 1-1h6a1 1 0 0 1 0 2h-5v6h6v-1a1 1 0 0 1 2 0v2a1 1 0 0 1-1 1h-8a1 1 0 0 1-1-1zm0 14a1 1 0 0 1 1-1h6a1 1 0 0 1 0 2h-5v6h6v-1a1 1 0 0 1 2 0v2a1 1 0 0 1-1 1h-8a1 1 0 0 1-1-1zm10 22a1 1 0 0 1-1 1h-8a1 1 0 0 1-1-1v-8a1 1 0 0 1 1-1h6a1 1 0 0 1 0 2h-5v6h6v-1a1 1 0 0 1 2 0zm1.707-7.293-5 5a1 1 0 0 1-1.414 0l-2-2a1 1 0 0 1 1.414-1.414L15 52.586l4.293-4.293a1 1 0 0 1 1.414 1.414zm0-14-5 5a1 1 0 0 1-1.414 0l-2-2a1 1 0 0 1 1.414-1.414L15 38.586l4.293-4.293a1 1 0 0 1 1.414 1.414zm0-14-5 5a1 1 0 0 1-1.414 0l-2-2a1 1 0 0 1 1.414-1.414L15 24.586l4.293-4.293a1 1 0 0 1 1.414 1.414zm0-14-5 5a1 1 0 0 1-1.414 0l-2-2a1 1 0 0 1 1.414-1.414L15 10.586l4.293-4.293a1 1 0 1 1 1.414 1.414zM30 56h-6a1 1 0 0 1 0-2h6a1 1 0 0 1 0 2zm8-4H24a1 1 0 0 1 0-2h14a1 1 0 0 1 0 2z" style="fill:#232328"/></g></svg>